<svg xmlns="http://www.w3.org/2000/svg"  viewBox="0 0 100 100" width="200px" height="200px"><path fill="#e3e2e3" d="M69.5,80.5h-39c-6.075,0-11-4.925-11-11v-39c0-6.075,4.925-11,11-11h39c6.075,0,11,4.925,11,11v39	C80.5,75.575,75.575,80.5,69.5,80.5z"/><path fill="#b2b1c2" d="M76.5,47.5c-5.109,4.258-16.386,4.527-21.099,4.822c-1.066,0.067-1.875,0.976-1.816,2.043	c0.262,4.746,0.622,16.141-7.085,22.136h22.018c4.408,0,7.982-3.574,7.982-7.982V47.5z"/><path fill="#9898ad" d="M76.5,51.5c-5.241,4.367-13.867,4.538-17.628,4.845c-0.772,0.063-1.371,0.685-1.414,1.458	c-0.24,4.257-1.622,15.14-6.958,18.697h17.727c4.546,0,8.234-3.681,8.242-8.227L76.5,51.5z"/><path fill="#b2b1c2" d="M53.5,76.5c10.136-4.889,17.22-12.74,22.954-22.919v15.3c0,4.208-3.411,7.619-7.619,7.619	C68.835,76.5,53.5,76.5,53.5,76.5z"/><path fill="#1f212b" d="M23.493,60.007c0.276,0.004,0.503-0.217,0.507-0.493c0-0.005,0-0.009,0-0.014v-3	c0.004-0.276-0.216-0.503-0.492-0.508c-0.005,0-0.011,0-0.016,0C23.216,55.996,22.996,56.224,23,56.5v3	C22.996,59.776,23.217,60.003,23.493,60.007z"/><path fill="#1f212b" d="M23.493,48.007c0.276,0.004,0.503-0.217,0.507-0.493c0-0.005,0-0.009,0-0.014v-16	c0-4.148,3.352-7.5,7.5-7.5h21c0.276,0.004,0.503-0.217,0.507-0.493c0.004-0.276-0.217-0.503-0.493-0.507c-0.005,0-0.009,0-0.014,0	h-21c-4.688,0-8.5,3.812-8.5,8.5v16C22.996,47.776,23.217,48.003,23.493,48.007z"/><path fill="#1f212b" d="M55.486,24c0.005,0,0.009,0,0.014,0h8c0.276,0.004,0.503-0.217,0.507-0.493	c0.004-0.276-0.217-0.503-0.493-0.507c-0.005,0-0.009,0-0.014,0h-8c-0.276-0.004-0.503,0.217-0.507,0.493	C54.989,23.769,55.21,23.996,55.486,24z"/><path fill="#1f212b" d="M68.5,23h-2c-0.276-0.004-0.503,0.217-0.507,0.493c-0.004,0.276,0.217,0.503,0.493,0.507	c0.005,0,0.009,0,0.014,0h2c4.127,0,7.5,3.373,7.5,7.5v15.747c-1.237,0.982-2.822,1.74-4.584,2.328	c-0.805-7.151-6.375-13.826-14.713-17.532c-8-3.555-15.684-2.769-20.557,2.104c-4.381,4.381-9.081,15.63-6.121,24.512	c2.654,7.962,10.149,11.562,17.447,11.562c1.168,0,2.324-0.119,3.461-0.3c-1.028,2.268-2.496,4.392-4.615,6.079H31.5	c-4.148,0-7.5-3.352-7.5-7.5v-6c0.004-0.276-0.217-0.503-0.493-0.507c-0.276-0.004-0.503,0.217-0.507,0.493c0,0.005,0,0.009,0,0.014	v6c0,4.688,3.812,8.5,8.5,8.5h37c4.688,0,8.5-3.812,8.5-8.5v-37C77,26.827,73.173,23,68.5,23z M30.974,58.342	c-2.834-8.504,1.677-19.286,5.879-23.488c4.568-4.568,11.838-5.278,19.443-1.896c8.09,3.596,13.467,10.053,14.148,16.925	c-1.63,0.474-3.37,0.823-5.099,1.081c0.326-2.644-2.035-7.346-3.777-9.931C60.2,39,59.728,39,59.5,39	c-0.813,0-2.217,2.182-4.175,6.481c-0.491-0.938-1.303-1.779-2.601-2.428c-1.385-0.693-2.898-0.767-4.395-0.235	C45.75,33.008,44.885,33,44.5,33c-1.297,0-7.174,8.387-8.288,11.076c-0.267,0.645-0.483,1.36-0.066,1.777	c0.919,0.919,5.257,1.049,7.539,1.052c-0.284,0.495-0.509,0.984-0.659,1.436c-0.632,1.897-0.157,4.494,1.156,6.315	c0.578,0.801,1.283,1.405,2.069,1.802c-0.493,0.476-1.194,1.305-2.166,2.764c-1.67,2.506-2.538,4.144-2.025,5.102	C42.299,64.772,42.784,65,43.5,65c0.646,0,1.542,0.133,2.581,0.286c1.43,0.211,3.102,0.458,4.785,0.458	c0.502,0,1.003-0.033,1.5-0.084c-0.248,1.065-0.567,2.133-0.973,3.184C43.443,70.362,33.951,67.272,30.974,58.342z M58.124,42.12	c0.582-1.057,1.084-1.84,1.377-2.078c1.172,0.849,5.528,8.376,4.798,11.065c-1.131,0.148-2.241,0.262-3.301,0.352	C60.978,50.291,59.991,45.511,58.124,42.12z M60.008,51.539c-0.491,0.037-0.961,0.068-1.419,0.096	c0.146-0.481,0.316-1.125,0.383-1.702C59.405,50.314,60,51.1,60,51.5C60,51.514,60.007,51.525,60.008,51.539z M45.146,61.854	c0.899,0.9,5.011,1.106,7.714,1.141c-0.074,0.538-0.165,1.084-0.272,1.635c-2.133,0.284-4.466-0.053-6.362-0.333	C45.15,64.138,44.22,64,43.5,64c-0.301,0-0.51-0.056-0.56-0.147c-0.217-0.406,0.439-1.764,1.947-4.032	c0.259,0.197,0.481,0.451,0.525,0.704c0.013,0.075,0.053,0.303-0.266,0.622C44.951,61.342,44.951,61.658,45.146,61.854z M45.625,58.763c0.969-1.327,1.502-1.773,1.699-1.905C47.705,56.95,48.097,57,48.5,57c0.014,0,0.027-0.001,0.041-0.001	c-0.144,0.52-0.476,0.942-1.005,1.252C46.898,58.625,46.157,58.751,45.625,58.763z M51.072,56.675	c0.963-0.271,1.629-0.669,2.076-1.037c0.048,1.129,0.079,2.561,0.002,4.184C52.063,59.221,51.354,57.586,51.072,56.675z M53.095,54.223c-0.012,0.017-0.029,0.029-0.039,0.048C53.018,54.342,52.094,56,48.5,56c-1.751,0-2.874-1.048-3.507-1.927	c-1.137-1.577-1.555-3.804-1.019-5.415c0.504-1.512,1.89-3.399,3.684-4.435c0.121,0.467,0.241,0.934,0.357,1.398	c0.066,0.269,0.339,0.43,0.606,0.364c0.268-0.067,0.431-0.338,0.364-0.606c-0.139-0.555-0.272-1.076-0.402-1.582	c1.275-0.477,2.518-0.438,3.693,0.15c1.495,0.747,2.226,1.787,2.531,2.96c0.006,0.023,0.006,0.047,0.015,0.069	c0.368,1.5,0.061,3.209-0.227,4.802l-0.045,0.253C53.696,52.409,53.111,53.254,53.095,54.223z M38.958,45.663	c-1.011-0.117-1.771-0.275-2.048-0.47c-0.047-1.472,6.01-9.969,7.523-11.105c0.317,0.476,0.822,1.852,1.396,3.675	C43.231,40.159,39.76,44.619,38.958,45.663z M45.947,43.724c0.419-0.837,0.763-1.524,1.028-2.051	c0.142,0.515,0.284,1.037,0.424,1.565c-0.668,0.353-1.282,0.794-1.824,1.297C45.681,44.285,45.799,44.02,45.947,43.724z M53.49,65.205c0.002-0.006,0.003-0.012,0.004-0.018c0.93-4.511,0.705-8.775,0.591-10.848c-0.043-0.789,0.564-1.471,1.355-1.52	l1.28-0.074C61.777,52.465,70.95,51.95,76,48.493v2.76c-4.625,3.713-11.974,4.229-15.948,4.504	c-0.445,0.031-0.854,0.059-1.217,0.089c-1.014,0.083-1.82,0.903-1.875,1.908C56.878,59.216,55.999,72.059,50.337,76H47.83	C51.067,73.004,52.7,69.023,53.49,65.205z M51.917,76c5.031-4.748,5.911-15.872,6.041-18.19c0.028-0.509,0.44-0.925,0.958-0.968	c0.359-0.029,0.764-0.057,1.205-0.087C64.034,56.483,71.13,55.987,76,52.509v0.859C69.826,64.315,62.635,71.51,53.381,76H51.917z M68.5,76H55.577C63.762,71.604,70.316,64.97,76,55.355V68.5C76,72.648,72.648,76,68.5,76z"/><path fill="#1f212b" d="M69.189,18H30.811C23.769,18,18,23.769,18,30.811V69.19C18,76.231,23.769,82,30.811,82H69.19	C76.231,82,82,76.231,82,69.189V30.811C82,23.769,76.231,18,69.189,18z M80,69.19C80,75.14,75.14,80,69.189,80H30.811	C24.86,80,20,75.14,20,69.189V30.811C20,24.86,24.86,20,30.811,20H69.19C75.14,20,80,24.86,80,30.811V69.19z"/><path fill="#1f212b" d="M73,69.5h-2v-2c0-0.276-0.224-0.5-0.5-0.5S70,67.224,70,67.5v2h-2c-0.276,0-0.5,0.224-0.5,0.5	s0.224,0.5,0.5,0.5h2v2c0,0.276,0.224,0.5,0.5,0.5s0.5-0.224,0.5-0.5v-2h2c0.276,0,0.5-0.224,0.5-0.5S73.276,69.5,73,69.5z"/></svg>