<?xml version="1.0" encoding="utf-8"?>
<!-- Generator: Adobe Illustrator 25.3.1, SVG Export Plug-In . SVG Version: 6.00 Build 0)  -->
<svg version="1.1" id="レイヤー_1" xmlns:sketch="http://www.bohemiancoding.com/sketch/ns"
	 xmlns="http://www.w3.org/2000/svg" xmlns:xlink="http://www.w3.org/1999/xlink" x="0px" y="0px" viewBox="0 0 40 40"
	 style="enable-background:new 0 0 239 40;" xml:space="preserve">
<style type="text/css">
	.st0{fill-rule:evenodd;clip-rule:evenodd;fill:url(#Shape_4_);}
	.st1{fill-rule:evenodd;clip-rule:evenodd;fill:#E0E0E0;}
	.st2{fill-rule:evenodd;clip-rule:evenodd;fill:#61D4DB;}
	.st3{fill-rule:evenodd;clip-rule:evenodd;fill:url(#SVGID_1_);}
	.st4{fill-rule:evenodd;clip-rule:evenodd;fill:url(#SVGID_2_);}
	.st5{fill-rule:evenodd;clip-rule:evenodd;fill:url(#SVGID_3_);}
	.st6{fill-rule:evenodd;clip-rule:evenodd;fill:#1E1E1E;}
</style>
<desc>Created with Sketch.</desc>
<g id="会社情報" sketch:type="MSPage">
	<g id="会社紹介-_x3E_-事業紹介" transform="translate(-41.000000, -424.000000)" sketch:type="MSArtboardGroup">
		<g id="_xFF03_Content" transform="translate(0.000000, 41.000000)" sketch:type="MSLayerGroup">
			<g id="アプリ" transform="translate(10.000000, 277.000000)" sketch:type="MSShapeGroup">
				<g id="img" transform="translate(10.000000, 67.000000)">
					<g id="MDBNpaint-logo" transform="translate(21.000000, 39.000000)">
						
							<linearGradient id="Shape_4_" gradientUnits="userSpaceOnUse" x1="-548.3702" y1="395.8915" x2="-548.3702" y2="394.9206" gradientTransform="matrix(39.8451 0 0 -39.917 21869.8418 15803.4736)">
							<stop  offset="0" style="stop-color:#FFFFFF"/>
							<stop  offset="1" style="stop-color:#E6E6E6"/>
						</linearGradient>
						<path id="Shape" class="st0" d="M10.8,0.1h14.5c5.6,0,9.9,0,12.4,3.1c2.4,3,2.2,7.2,2.2,12.6v10.4c0,2.9,0.1,5.9-0.7,8.1
							c-0.6,1.7-1.9,3.3-3.3,4.2c-2.8,1.8-7.6,1.5-12.2,1.5h-9.9c-2.9,0-5.8,0.1-8-0.7c-1.7-0.6-3.1-1.8-4-3.1
							c-1.6-2.3-1.7-5.8-1.7-9.8V14.3C0.1,11.7,0,9,0.5,6.8c0.3-1.4,0.9-2.5,1.6-3.4c1.2-1.6,3-2.6,5.3-3C8.5,0.3,9.7,0.2,10.8,0.1
							L10.8,0.1z"/>
						<path id="Shape_1_" class="st1" d="M25.8,0.6c2.4,0,4.9,0,6.9,0.4c2,0.4,3.5,1.2,4.5,2.5c1,1.2,1.6,2.7,1.8,4.7
							c0.3,1.9,0.3,4,0.3,6.4v1.1v10.4v0.9c0,2.5,0,5.1-0.6,7c-0.5,1.6-1.7,3-3.1,3.9c-0.9,0.6-2.2,1-3.8,1.2
							c-1.6,0.2-3.4,0.2-5,0.2c-0.5,0-1,0-1.5,0c-0.5,0-1,0-1.6,0l0,0h-9.9h-0.8h-0.8c-2.2,0-4.4,0-6.1-0.6
							c-1.5-0.5-2.8-1.6-3.8-2.9c-0.7-1-1.1-2.3-1.3-4c-0.2-1.6-0.2-3.4-0.2-5.4V14.3c0-0.4,0-0.9,0-1.3c0-2.1,0-4.3,0.4-6
							c0.3-1.2,0.8-2.3,1.5-3.2c1.1-1.4,2.7-2.4,4.9-2.8l2.3-0.2l1.1-0.1h14.5h0.2L25.8,0.6L25.8,0.6z M25.8,0.1h-0.5H10.8
							C9.7,0.2,8.5,0.3,7.4,0.4c-2.3,0.5-4.1,1.5-5.3,3c-0.7,1-1.3,2.1-1.6,3.4C0,9,0.1,11.7,0.1,14.3v12.1c0,4,0.1,7.5,1.7,9.8
							c0.9,1.3,2.4,2.5,4,3.1c1.7,0.6,4,0.7,6.3,0.7h1.7h9.9l0,0c1,0,2.1,0,3.1,0c3.6,0,7-0.2,9.1-1.5c1.5-0.9,2.7-2.5,3.3-4.2
							c0.8-2.2,0.7-5.2,0.7-8.1V15.8c0-5.4,0.2-9.6-2.2-12.6C35.3,0.1,31.2,0.1,25.8,0.1L25.8,0.1L25.8,0.1z"/>
						<g id="Group" transform="translate(8.685259, 5.588822)">
							<path id="Shape_2_" class="st2" d="M20.6,9.7c-0.1-0.1-0.1-0.3-0.2-0.4c0,0,0,0-0.1-0.1c-0.1-0.2-0.2-0.3-0.3-0.5
								c0,0-0.1-0.1-0.1-0.1c-0.1-0.2-0.3-0.4-0.4-0.5c0-0.1-0.1-0.1-0.1-0.2c-0.1-0.1-0.2-0.3-0.4-0.4c0,0,0,0-0.1-0.1
								c-1.1-1.1-2.1-1.7-2.9-2.2c-0.5-0.3-0.9-0.6-1.3-1C13.5,3.2,13.3,2.7,14,0C8.8,0.9,2.9,6.7,1.6,9.8c0,0,0,0,0,0
								c-0.5,0.9-0.9,1.8-1.1,2.8c-0.2,0.9-0.4,1.8-0.4,2.8c0,2.1,0.6,4,1.6,5.7c1.9,3.2,5.4,5.4,9.4,5.4c6.1,0,11-5,11-11.1
								C22.2,13.3,21.6,11.4,20.6,9.7L20.6,9.7z"/>
							<g id="Shape_3_">
								
									<linearGradient id="SVGID_1_" gradientUnits="userSpaceOnUse" x1="-534.8841" y1="372.6339" x2="-535.2955" y2="372.1776" gradientTransform="matrix(15.6096 0 0 -13.7408 8361.1953 5125.2378)">
									<stop  offset="0" style="stop-color:#FFB238"/>
									<stop  offset="0.2561" style="stop-color:#FF8F38"/>
									<stop  offset="1" style="stop-color:#FF0038"/>
								</linearGradient>
								<path class="st3" d="M16,5.3c-0.5-0.3-0.9-0.6-1.3-1c-1.1-1.2-1.4-1.6-0.6-4.3C8.8,0.9,2.9,6.7,1.6,9.8c0,0,0,0,0,0
									c-0.5,0.9-0.9,1.8-1.1,2.8C5.5,15.8,14.2,11.9,16,5.3L16,5.3z"/>
								
									<linearGradient id="SVGID_2_" gradientUnits="userSpaceOnUse" x1="-543.6061" y1="379.7861" x2="-543.8859" y2="379.1458" gradientTransform="matrix(20.5977 0 0 -18.5549 11214.0615 7056.0063)">
									<stop  offset="0" style="stop-color:#FEF142"/>
									<stop  offset="1" style="stop-color:#42A726"/>
								</linearGradient>
								<path class="st4" d="M20.7,9.8c-0.1-0.1-0.1-0.3-0.2-0.4c0,0,0,0-0.1-0.1c-0.1-0.2-0.2-0.3-0.3-0.5c0,0-0.1-0.1-0.1-0.1
									c-0.1-0.2-0.3-0.4-0.4-0.6c0-0.1-0.1-0.1-0.1-0.2C20,19.8,9.1,26.1,1.7,21.1c1.9,3.2,5.5,5.4,9.5,5.4
									c6.1,0,11.1-5,11.1-11.1C22.3,13.3,21.7,11.4,20.7,9.8L20.7,9.8z"/>
								
									<linearGradient id="SVGID_3_" gradientUnits="userSpaceOnUse" x1="-541.8137" y1="378.3826" x2="-542.3663" y2="377.93" gradientTransform="matrix(19.3702 0 0 -17.4982 10510.7441 6631.3364)">
									<stop  offset="0" style="stop-color:#55FCFE"/>
									<stop  offset="0.5" style="stop-color:#3AD6D8"/>
									<stop  offset="1" style="stop-color:#29A1AB"/>
								</linearGradient>
								<path class="st5" d="M19.4,8c-0.1-0.1-0.2-0.3-0.4-0.4c0,0,0,0-0.1-0.1c-1.1-1.1-2.1-1.7-2.9-2.2
									c-1.8,6.6-10.5,10.5-15.6,7.3c-0.2,0.9-0.4,1.8-0.4,2.8c0,2.1,0.6,4.1,1.6,5.7C9.1,26.1,20,19.8,19.4,8L19.4,8z"/>
							</g>
						</g>
					</g>
				</g>
			</g>
		</g>
	</g>
</g>
</svg>
